<?xml version="1.0" encoding="UTF-8"?>
<svg xmlns="http://www.w3.org/2000/svg" xmlns:xlink="http://www.w3.org/1999/xlink" width="64pt" height="64pt" viewBox="0 0 64 64" version="1.1">
<g id="surface1">
<path style=" stroke:none;fill-rule:nonzero;fill:rgb(23.137255%,26.27451%,30.980392%);fill-opacity:1;" d="M 52.429688 49.1875 C 49.878906 60.339844 36.828125 55.972656 32.375 54.117188 C 32.375 54.117188 32.375 54.105469 32.375 54.105469 C 27.921875 55.960938 14.871094 60.332031 12.320312 49.171875 C 12.320312 49.171875 16.894531 49.222656 15.523438 34.878906 C 15.523438 34.878906 10.566406 6.464844 32.375 8.839844 C 32.375 8.839844 32.375 8.886719 32.375 8.886719 C 54.183594 6.515625 49.226562 34.90625 49.226562 34.90625 C 47.855469 49.238281 52.429688 49.1875 52.429688 49.1875 Z M 52.429688 49.1875 "/>
<path style=" stroke:none;fill-rule:nonzero;fill:rgb(100%,100%,100%);fill-opacity:1;" d="M 14.546875 62.75 C 14.546875 62.75 13.71875 51.5 24.304688 50.453125 C 24.304688 50.453125 29.050781 50.453125 29.050781 50.453125 C 29.050781 50.453125 29.050781 48.265625 29.050781 48.265625 C 29.050781 48.265625 32.390625 49.699219 35.773438 48.425781 C 35.773438 48.425781 35.878906 50.453125 35.878906 50.453125 C 35.878906 50.453125 41.425781 50.453125 41.425781 50.453125 C 41.425781 50.453125 50.921875 50.824219 50.492188 62.855469 C 50.492188 62.855469 14.546875 62.75 14.546875 62.75 Z M 14.546875 62.75 "/>
<path style=" stroke:none;fill-rule:nonzero;fill:rgb(23.137255%,26.27451%,30.980392%);fill-opacity:1;" d="M 50.585938 63.199219 C 50.585938 63.199219 15.019531 63.199219 15.019531 63.199219 C 15.019531 63.199219 14.332031 63.199219 14.332031 63.199219 C 14.332031 63.199219 14.503906 60.257812 14.503906 60.257812 C 14.839844 54.515625 19.363281 50.132812 24.542969 50.132812 C 24.542969 50.132812 28.480469 50.132812 28.480469 50.132812 C 28.480469 50.132812 28.480469 50.71875 28.480469 50.71875 C 28.480469 50.71875 24.855469 50.71875 24.855469 50.71875 C 19.863281 50.71875 15.503906 54.9375 15.179688 60.464844 C 15.179688 60.464844 15.058594 62.503906 15.058594 62.503906 C 15.058594 62.503906 50.492188 62.503906 50.492188 62.503906 C 50.492188 62.503906 50.425781 60.464844 50.425781 60.464844 C 50.101562 54.9375 45.738281 50.71875 40.75 50.71875 C 40.75 50.71875 35.894531 50.71875 35.894531 50.71875 C 35.894531 50.71875 35.894531 50.132812 35.894531 50.132812 C 35.894531 50.132812 41.03125 50.132812 41.03125 50.132812 C 46.210938 50.132812 50.734375 54.515625 51.070312 60.257812 C 51.070312 60.257812 51.242188 63.199219 51.242188 63.199219 C 51.242188 63.199219 50.585938 63.199219 50.585938 63.199219 Z M 50.585938 63.199219 "/>
<path style=" stroke:none;fill-rule:nonzero;fill:rgb(23.137255%,26.27451%,30.980392%);fill-opacity:1;" d="M 32.214844 56.746094 C 29.359375 56.746094 27.042969 54.429688 27.042969 51.570312 C 27.042969 51.070312 27.113281 50.589844 27.246094 50.132812 C 27.246094 50.132812 27.253906 50.132812 27.253906 50.132812 C 27.253906 50.132812 27.804688 50.132812 27.804688 50.132812 C 27.804688 50.132812 28.75 50.132812 28.75 50.132812 C 28.75 50.132812 28.75 50.71875 28.75 50.71875 C 28.75 50.71875 27.65625 50.71875 27.65625 50.71875 C 27.601562 50.996094 27.574219 51.28125 27.574219 51.570312 C 27.574219 54.132812 29.652344 56.210938 32.214844 56.210938 C 34.777344 56.210938 36.855469 54.132812 36.855469 51.570312 C 36.855469 51.28125 36.828125 50.996094 36.773438 50.71875 C 36.773438 50.71875 35.683594 50.71875 35.683594 50.71875 C 35.683594 50.71875 35.683594 50.132812 35.683594 50.132812 C 35.683594 50.132812 36.625 50.132812 36.625 50.132812 C 36.625 50.132812 37.175781 50.132812 37.175781 50.132812 C 37.175781 50.132812 37.183594 50.132812 37.183594 50.132812 C 37.316406 50.589844 37.386719 51.070312 37.386719 51.570312 C 37.386719 54.429688 35.070312 56.746094 32.214844 56.746094 Z M 32.214844 56.746094 "/>
<path style=" stroke:none;fill-rule:nonzero;fill:rgb(23.137255%,26.27451%,30.980392%);fill-opacity:1;" d="M 29.175781 48.019531 C 29.175781 48.019531 29.175781 51.308594 29.175781 51.308594 C 29.175781 53.015625 30.558594 54.398438 32.269531 54.398438 C 33.976562 54.398438 35.363281 53.015625 35.363281 51.308594 C 35.363281 51.308594 35.363281 48.085938 35.363281 48.085938 C 35.542969 48.03125 35.71875 47.972656 35.894531 47.90625 C 35.894531 47.90625 35.894531 51.328125 35.894531 51.328125 C 35.894531 53.347656 34.257812 54.984375 32.242188 54.984375 C 30.222656 54.984375 28.589844 53.347656 28.589844 51.328125 C 28.589844 51.328125 28.589844 47.808594 28.589844 47.808594 C 28.78125 47.882812 28.976562 47.953125 29.175781 48.019531 Z M 29.175781 48.019531 "/>
<path style=" stroke:none;fill-rule:nonzero;fill:rgb(100%,100%,100%);fill-opacity:1;" d="M 32.402344 14.558594 C 39.035156 14.558594 44.273438 20.757812 44.101562 28.207031 C 44.101562 28.207031 43.921875 36.125 43.921875 36.125 C 43.761719 43.144531 38.605469 48.691406 32.402344 48.691406 C 26.199219 48.691406 21.042969 43.144531 20.882812 36.125 C 20.882812 36.125 20.699219 28.207031 20.699219 28.207031 C 20.53125 20.757812 25.765625 14.558594 32.402344 14.558594 Z M 32.402344 14.558594 "/>
<path style=" stroke:none;fill-rule:evenodd;fill:rgb(23.137255%,26.27451%,30.980392%);fill-opacity:1;" d="M 44.636719 27.960938 C 44.636719 27.960938 44.445312 36.203125 44.445312 36.203125 C 44.277344 43.503906 38.875 49.277344 32.375 49.277344 C 25.875 49.277344 20.472656 43.503906 20.304688 36.203125 C 20.304688 36.203125 20.113281 27.960938 20.113281 27.960938 C 19.9375 20.210938 25.421875 13.757812 32.375 13.757812 C 39.328125 13.757812 44.816406 20.210938 44.636719 27.960938 Z M 32.347656 14.613281 C 25.804688 14.613281 20.640625 20.761719 20.808594 28.15625 C 20.808594 28.15625 20.984375 36.011719 20.984375 36.011719 C 21.144531 42.972656 26.230469 48.476562 32.347656 48.476562 C 38.46875 48.476562 43.554688 42.972656 43.710938 36.011719 C 43.710938 36.011719 43.890625 28.15625 43.890625 28.15625 C 44.058594 20.761719 38.890625 14.613281 32.347656 14.613281 Z M 32.347656 14.613281 "/>
<path style=" stroke:none;fill-rule:nonzero;fill:rgb(23.137255%,26.27451%,30.980392%);fill-opacity:1;" d="M 38.136719 40.914062 C 37.164062 41.757812 34.976562 42.558594 32.429688 42.558594 C 29.878906 42.558594 27.691406 41.757812 26.722656 40.914062 C 26.722656 40.914062 26.621094 40.644531 26.769531 40.496094 C 26.917969 40.347656 27.148438 40.382812 27.148438 40.382812 C 28.117188 41.222656 29.878906 41.917969 32.429688 41.917969 C 34.976562 41.917969 36.738281 41.222656 37.707031 40.382812 C 37.707031 40.382812 37.945312 40.292969 38.058594 40.410156 C 38.28125 40.628906 38.136719 40.914062 38.136719 40.914062 Z M 38.136719 40.914062 "/>
<path style=" stroke:none;fill-rule:nonzero;fill:rgb(23.137255%,26.27451%,30.980392%);fill-opacity:1;" d="M 30.667969 43.839844 C 30.667969 43.839844 34.082031 43.839844 34.082031 43.839844 C 34.082031 43.839844 34.082031 44.371094 34.082031 44.371094 C 34.082031 44.371094 30.667969 44.371094 30.667969 44.371094 C 30.667969 44.371094 30.667969 43.839844 30.667969 43.839844 Z M 30.667969 43.839844 "/>
<path style=" stroke:none;fill-rule:nonzero;fill:rgb(100%,100%,100%);fill-opacity:1;" d="M 20.101562 29.164062 C 20.097656 29.164062 19.96875 29.0625 19.726562 28.984375 C 19.601562 28.945312 19.453125 28.914062 19.277344 28.90625 C 19.234375 28.902344 19.191406 28.902344 19.144531 28.90625 C 19.097656 28.90625 19.054688 28.910156 19.003906 28.914062 C 18.910156 28.925781 18.8125 28.941406 18.714844 28.972656 C 18.320312 29.085938 17.917969 29.359375 17.683594 29.925781 C 17.566406 30.210938 17.488281 30.570312 17.464844 31.015625 C 17.460938 31.128906 17.460938 31.246094 17.460938 31.367188 C 17.464844 31.492188 17.46875 31.621094 17.480469 31.753906 C 17.5 32.027344 17.539062 32.320312 17.59375 32.640625 C 17.589844 32.640625 17.539062 33.613281 17.886719 34.730469 C 18.214844 35.820312 19 37.164062 20.445312 37.546875 C 20.28125 34.773438 20.273438 31.949219 20.101562 29.164062 Z M 20.101562 29.164062 "/>
<path style=" stroke:none;fill-rule:nonzero;fill:rgb(23.137255%,26.27451%,30.980392%);fill-opacity:1;" d="M 20.265625 29.277344 C 20.265625 29.277344 17.742188 28.496094 17.832031 31.085938 C 17.832031 31.085938 18.207031 34.847656 18.371094 35.195312 C 18.371094 35.195312 19.363281 37.382812 20.996094 37.480469 C 22.59375 37.574219 20.996094 37.480469 20.996094 37.480469 C 20.996094 37.480469 21.015625 38.183594 21.015625 38.183594 C 21.015625 38.183594 18.144531 37.816406 17.589844 34.503906 C 17.589844 34.503906 17.148438 31.496094 17.148438 31.496094 C 17.148438 31.496094 16.808594 27.515625 20.109375 28.53125 C 23.324219 29.515625 20.109375 28.53125 20.109375 28.53125 C 20.109375 28.53125 20.265625 29.277344 20.265625 29.277344 "/>
<path style=" stroke:none;fill-rule:nonzero;fill:rgb(23.137255%,26.27451%,30.980392%);fill-opacity:1;" d="M 19.433594 34.5 C 19.433594 34.5 19.292969 34.605469 19.171875 34.605469 C 19.050781 34.605469 18.910156 34.5 18.910156 34.5 C 18.910156 34.5 18.648438 31.875 18.648438 31.875 C 18.648438 31.875 19.007812 30.585938 20.53125 31.265625 C 20.53125 31.265625 20.570312 32.015625 20.570312 32.015625 C 20.570312 32.015625 19.230469 31.542969 19.261719 32.132812 C 19.285156 32.703125 19.433594 34.5 19.433594 34.5 Z M 19.433594 34.5 "/>
<path style=" stroke:none;fill-rule:nonzero;fill:rgb(100%,100%,100%);fill-opacity:1;" d="M 44.601562 29.171875 C 44.601562 29.171875 44.734375 29.066406 44.980469 28.988281 C 45.101562 28.953125 45.253906 28.921875 45.429688 28.914062 C 45.472656 28.910156 45.515625 28.910156 45.5625 28.910156 C 45.609375 28.914062 45.652344 28.914062 45.703125 28.921875 C 45.796875 28.929688 45.894531 28.949219 45.992188 28.976562 C 46.390625 29.089844 46.792969 29.367188 47.03125 29.933594 C 47.148438 30.21875 47.226562 30.574219 47.25 31.019531 C 47.253906 31.132812 47.253906 31.25 47.253906 31.371094 C 47.25 31.496094 47.246094 31.625 47.234375 31.761719 C 47.214844 32.03125 47.175781 32.324219 47.121094 32.644531 C 47.121094 32.644531 47.171875 33.617188 46.824219 34.734375 C 46.496094 35.824219 45.707031 37.164062 44.253906 37.546875 C 44.421875 34.777344 44.425781 31.953125 44.601562 29.171875 Z M 44.601562 29.171875 "/>
<path style=" stroke:none;fill-rule:nonzero;fill:rgb(23.137255%,26.27451%,30.980392%);fill-opacity:1;" d="M 44.433594 29.28125 C 44.433594 29.28125 46.96875 28.5 46.878906 31.09375 C 46.878906 31.09375 46.503906 34.847656 46.339844 35.195312 C 46.339844 35.195312 45.34375 37.382812 43.703125 37.480469 C 42.097656 37.574219 43.703125 37.480469 43.703125 37.480469 C 43.703125 37.480469 43.683594 38.183594 43.683594 38.183594 C 43.683594 38.183594 46.566406 37.816406 47.125 34.507812 C 47.125 34.507812 47.566406 31.503906 47.566406 31.503906 C 47.566406 31.503906 47.90625 27.523438 44.59375 28.535156 C 41.367188 29.519531 44.59375 28.535156 44.59375 28.535156 C 44.59375 28.535156 44.433594 29.28125 44.433594 29.28125 "/>
<path style=" stroke:none;fill-rule:nonzero;fill:rgb(23.137255%,26.27451%,30.980392%);fill-opacity:1;" d="M 45.269531 34.5 C 45.269531 34.5 45.414062 34.609375 45.535156 34.609375 C 45.65625 34.609375 45.796875 34.5 45.796875 34.5 C 45.796875 34.5 46.058594 31.878906 46.058594 31.878906 C 46.058594 31.878906 45.699219 30.589844 44.167969 31.273438 C 44.167969 31.273438 44.128906 32.023438 44.128906 32.023438 C 44.128906 32.023438 45.472656 31.546875 45.445312 32.136719 C 45.417969 32.707031 45.269531 34.5 45.269531 34.5 Z M 45.269531 34.5 "/>
<path style=" stroke:none;fill-rule:evenodd;fill:rgb(23.137255%,26.27451%,30.980392%);fill-opacity:1;" d="M 33.363281 34.292969 C 33.425781 34.292969 33.484375 34.292969 33.546875 34.292969 C 33.933594 34.816406 34.089844 35.621094 34.296875 36.316406 C 34.359375 36.535156 34.296875 36.914062 34.242188 37.066406 C 34.039062 37.625 33.40625 37.613281 32.882812 37.863281 C 32.742188 37.933594 32.636719 38.046875 32.453125 38.078125 C 32.335938 37.972656 32.191406 37.953125 32.136719 37.785156 C 31.992188 37.585938 32.175781 37.460938 32.320312 37.386719 C 32.585938 37.242188 33.398438 37.105469 33.496094 36.851562 C 33.617188 36.714844 33.535156 36.304688 33.496094 36.160156 C 33.390625 35.789062 33.34375 35.480469 33.203125 35.144531 C 33.109375 34.921875 32.945312 34.6875 33.042969 34.425781 C 33.121094 34.390625 33.296875 34.351562 33.363281 34.292969 Z M 33.363281 34.292969 "/>
<path style=" stroke:none;fill-rule:nonzero;fill:rgb(23.137255%,26.27451%,30.980392%);fill-opacity:1;" d="M 25.601562 30.527344 C 25.601562 30.527344 27.523438 30.527344 27.523438 30.527344 C 27.785156 30.527344 28 30.785156 28 31.101562 C 28 31.421875 27.785156 31.679688 27.523438 31.679688 C 27.523438 31.679688 25.601562 31.679688 25.601562 31.679688 C 25.335938 31.679688 25.121094 31.421875 25.121094 31.101562 C 25.121094 30.785156 25.335938 30.527344 25.601562 30.527344 Z M 25.601562 30.527344 "/>
<path style=" stroke:none;fill-rule:nonzero;fill:rgb(23.137255%,26.27451%,30.980392%);fill-opacity:1;" d="M 37.335938 30.398438 C 37.335938 30.398438 39.253906 30.398438 39.253906 30.398438 C 39.519531 30.398438 39.734375 30.65625 39.734375 30.972656 C 39.734375 31.292969 39.519531 31.550781 39.253906 31.550781 C 39.253906 31.550781 37.335938 31.550781 37.335938 31.550781 C 37.070312 31.550781 36.855469 31.292969 36.855469 30.972656 C 36.855469 30.65625 37.070312 30.398438 37.335938 30.398438 Z M 37.335938 30.398438 "/>
<path style=" stroke:none;fill-rule:nonzero;fill:rgb(92.941176%,94.509804%,94.509804%);fill-opacity:1;" d="M 38.828125 33.703125 C 39.566406 33.703125 40.160156 34.300781 40.160156 35.039062 C 40.160156 35.773438 39.566406 36.371094 38.828125 36.371094 C 38.09375 36.371094 37.496094 35.773438 37.496094 35.039062 C 37.496094 34.300781 38.09375 33.703125 38.828125 33.703125 Z M 38.828125 33.703125 "/>
<path style=" stroke:none;fill-rule:nonzero;fill:rgb(92.941176%,94.509804%,94.509804%);fill-opacity:1;" d="M 25.921875 33.703125 C 26.65625 33.703125 27.253906 34.300781 27.253906 35.039062 C 27.253906 35.773438 26.65625 36.371094 25.921875 36.371094 C 25.183594 36.371094 24.589844 35.773438 24.589844 35.039062 C 24.589844 34.300781 25.183594 33.703125 25.921875 33.703125 Z M 25.921875 33.703125 "/>
<path style=" stroke:none;fill-rule:evenodd;fill:rgb(23.137255%,26.27451%,30.980392%);fill-opacity:1;" d="M 43.042969 28.796875 C 43.042969 28.796875 43.042969 32.746094 43.042969 32.746094 C 43.042969 33.710938 42.101562 35.214844 40.566406 35.300781 C 40.34375 35.289062 35.789062 35.304688 35.789062 35.304688 C 33.742188 35.304688 33.335938 32.851562 33.335938 32.851562 C 33.335938 32.851562 33.335938 30.183594 33.335938 30.183594 C 33.335938 30.183594 31.414062 30.183594 31.414062 30.183594 C 31.414062 30.183594 31.414062 32.851562 31.414062 32.851562 C 31.414062 32.851562 31.007812 35.304688 28.960938 35.304688 C 28.960938 35.304688 24.40625 35.289062 24.183594 35.300781 C 22.648438 35.214844 21.707031 33.710938 21.707031 32.746094 C 21.707031 32.746094 21.707031 28.796875 21.707031 28.796875 C 21.707031 28.796875 20 28.796875 20 28.796875 C 20 28.796875 20 27.730469 20 27.730469 C 20 27.730469 29.921875 27.730469 29.921875 27.730469 C 29.921875 27.730469 31.414062 27.972656 31.414062 29.011719 C 31.414062 29.011719 33.335938 29.011719 33.335938 29.011719 C 33.335938 27.972656 34.828125 27.730469 34.828125 27.730469 C 34.828125 27.730469 44.75 27.730469 44.75 27.730469 C 44.75 27.730469 44.75 28.796875 44.75 28.796875 C 44.75 28.796875 43.042969 28.796875 43.042969 28.796875 Z M 30.347656 29.332031 C 30.347656 28.953125 29.921875 28.90625 29.921875 28.90625 C 29.921875 28.90625 22.773438 28.90625 22.773438 28.90625 C 22.773438 28.90625 22.773438 32.636719 22.773438 32.636719 C 22.773438 33.800781 24.375 34.238281 24.375 34.238281 C 24.375 34.238281 28.75 34.238281 28.75 34.238281 C 30.253906 34.238281 30.347656 32.636719 30.347656 32.636719 C 30.347656 32.636719 30.347656 29.710938 30.347656 29.332031 Z M 41.976562 28.90625 C 41.976562 28.90625 34.828125 28.90625 34.828125 28.90625 C 34.828125 28.90625 34.402344 28.953125 34.402344 29.332031 C 34.402344 29.710938 34.402344 32.636719 34.402344 32.636719 C 34.402344 32.636719 34.496094 34.238281 36 34.238281 C 36 34.238281 40.375 34.238281 40.375 34.238281 C 40.375 34.238281 41.976562 33.800781 41.976562 32.636719 C 41.976562 32.636719 41.976562 28.90625 41.976562 28.90625 Z M 40.480469 35.304688 C 40.511719 35.304688 40.539062 35.300781 40.566406 35.300781 C 40.59375 35.300781 40.566406 35.304688 40.480469 35.304688 Z M 24.183594 35.300781 C 24.210938 35.300781 24.238281 35.304688 24.269531 35.304688 C 24.183594 35.304688 24.15625 35.300781 24.183594 35.300781 Z M 24.183594 35.300781 "/>
<path style=" stroke:none;fill-rule:evenodd;fill:rgb(23.137255%,26.27451%,30.980392%);fill-opacity:1;" d="M 32.375 20.375 C 32.375 20.375 32.375 8.566406 32.375 8.566406 C 32.410156 8.566406 32.445312 8.566406 32.480469 8.566406 C 39.964844 8.566406 46.027344 14.628906 46.027344 22.113281 C 46.027344 22.113281 46.027344 26.464844 46.027344 26.464844 C 46.027344 26.617188 46.027344 26.765625 46.027344 26.910156 C 46.027344 26.910156 33.445312 23.507812 32.375 20.375 Z M 18.722656 26.910156 C 18.722656 26.765625 18.722656 26.617188 18.722656 26.464844 C 18.722656 26.464844 18.722656 22.113281 18.722656 22.113281 C 18.722656 14.628906 24.785156 8.566406 32.269531 8.566406 C 32.304688 8.566406 32.339844 8.566406 32.375 8.566406 C 32.375 8.566406 32.375 20.375 32.375 20.375 C 31.304688 23.507812 18.722656 26.910156 18.722656 26.910156 Z M 18.722656 26.910156 "/>
</g>
</svg>
